<svg width="16" height="16" viewBox="0 0 16 16" fill="none" xmlns="http://www.w3.org/2000/svg">
<path d="M1.5835 1.75854H14.4165V14.2415H1.5835V1.75854Z" fill="#0C0824"/>
<path d="M1.5835 1.75855H14.4165V14.2415H1.5835V1.75855ZM1 14.825H15V1.17505H1V14.825ZM10.4385 6.77505C9.9775 6.77505 9.82 7.00855 9.82 7.20105C9.82 7.41105 9.925 7.55705 10.5435 7.87755C11.4595 8.32105 11.7435 8.74655 11.7435 9.37105C11.7435 10.3045 11.032 10.806 10.0695 10.806C9.65642 10.8214 9.24586 10.7355 8.8735 10.556C8.8325 10.5385 8.827 10.5095 8.827 10.4625V9.60405C8.827 9.54555 8.856 9.52805 8.897 9.55755C9.2467 9.78242 9.65374 9.90184 10.0695 9.90155C10.5305 9.90155 10.723 9.70905 10.723 9.44655C10.723 9.23655 10.589 9.05005 9.9995 8.74655C9.171 8.35005 8.827 7.94655 8.827 7.27655C8.827 6.52405 9.416 5.90005 10.437 5.90005C10.7924 5.88479 11.1473 5.94037 11.481 6.06355C11.5002 6.07602 11.5158 6.09339 11.526 6.11387C11.5363 6.13434 11.541 6.15718 11.5395 6.18005V6.98005C11.5395 7.02655 11.5105 7.05605 11.452 7.03855C11.1436 6.861 10.7928 6.77029 10.437 6.77605L10.4385 6.77505ZM5.4215 7.46905C5.5555 7.48055 5.6605 7.48055 5.894 7.48055C6.5765 7.48055 7.218 7.24155 7.218 6.31405C7.218 5.57305 6.757 5.20005 5.9815 5.20005C5.748 5.20005 5.5265 5.21155 5.4215 5.21755V7.46905ZM4.383 4.36905C4.383 4.32805 4.4645 4.29905 4.5115 4.29905C5.0129 4.27856 5.51468 4.26889 6.0165 4.27005C7.6325 4.27005 8.2625 5.15655 8.2625 6.28855C8.2625 7.77005 7.189 8.40605 5.871 8.40605C5.6495 8.40605 5.5735 8.39455 5.416 8.39455V10.6345C5.416 10.681 5.3985 10.7045 5.346 10.7045H4.4535C4.407 10.7045 4.3835 10.687 4.3835 10.6345V4.37155L4.383 4.36905Z" fill="#31C5F0"/>
</svg>
