<svg width="16" height="15" viewBox="0 0 16 15" fill="none" xmlns="http://www.w3.org/2000/svg">
<path d="M15.7175 9.55122C15.3904 10.6651 14.7835 11.6637 13.8957 12.5458L13.8565 12.5848C12.7479 13.6864 11.4567 14.3468 9.98448 14.5691C9.6037 14.6263 9.21916 14.6549 8.83411 14.6546C6.85648 14.6546 5.16536 13.9523 3.75898 12.5458C2.8768 11.6634 2.27423 10.6651 1.94948 9.55122H15.7175ZM15.9939 7.88571C15.9808 8.15103 15.9533 8.41034 15.9136 8.66471L15.8999 8.74928H1.76848C1.7255 8.49254 1.69598 8.23373 1.68005 7.9739L1.67523 7.88571H15.994H15.9939ZM15.8996 6.22021C15.9428 6.47694 15.9725 6.73575 15.9886 6.99559L15.9935 7.08378H1.67517C1.68817 6.81853 1.71536 6.55928 1.75486 6.30484L1.76842 6.22021H15.8996V6.22021Z" fill="#2C2255"/>
<path d="M15.7179 5.41808C15.391 4.3012 14.784 3.29814 13.8957 2.40964C12.7812 1.2952 11.4807 0.626513 9.99597 0.401513C9.61142 0.34339 9.22302 0.31437 8.8341 0.3147C6.85653 0.3147 5.16528 1.0132 3.75903 2.4097C2.87653 3.29808 2.27366 4.30108 1.9491 5.41808" fill="#2C2255"/>
<path d="M1.24937 7.485C1.24937 3.7025 4.09012 0.559813 7.78569 0.007C7.694 0.00375 7.60188 0 7.50938 0C3.36219 0 0 3.35125 0 7.485C0 11.6189 3.36206 14.97 7.50931 14.97C7.60219 14.97 7.69431 14.9665 7.78631 14.9631C4.09013 14.4103 1.24944 11.2675 1.24944 7.485H1.24937Z" fill="#F7941E"/>
<path d="M13.7069 7.08372C13.6835 6.79198 13.6339 6.50294 13.5587 6.22009H4.10998C4.03472 6.50293 3.98508 6.79197 3.96167 7.08372H13.7069H13.7069Z" fill="url(#paint0_linear)"/>
<path d="M13.707 7.88586H3.96191C3.98522 8.17759 4.03479 8.46661 4.11004 8.74943H13.5589C13.6341 8.4666 13.6837 8.17758 13.707 7.88586H13.707Z" fill="url(#paint1_linear)"/>
<path d="M8.83436 12.3753C10.7966 12.3753 12.488 11.2192 13.2669 9.55127H4.40186C5.18061 11.2192 6.87211 12.3753 8.83436 12.3753Z" fill="url(#paint2_linear)"/>
<path d="M15.898 8.74921C15.8504 9.02001 15.7871 9.28782 15.7085 9.55128H1.94936C1.87098 9.28984 1.81636 9.02209 1.7683 8.74921H15.898ZM15.9814 7.08371C15.9892 7.22184 15.9944 7.36053 15.9944 7.5004C15.9944 7.62978 15.9906 7.75821 15.9839 7.88578H1.67261C1.66572 7.75743 1.66222 7.62893 1.66211 7.5004C1.66211 7.36053 1.66723 7.22165 1.67517 7.08371H15.9814ZM15.6616 5.41821C15.7413 5.68162 15.8057 5.94942 15.8544 6.22028H1.76842C1.8178 5.94728 1.86923 5.67934 1.94892 5.41821H15.6616Z" fill="white"/>
<defs>
<linearGradient id="paint0_linear" x1="8.8343" y1="15.6284" x2="8.8343" y2="4.84261" gradientUnits="userSpaceOnUse">
<stop offset="0.3033" stop-color="#473788"/>
<stop offset="0.872" stop-color="#2C2255"/>
</linearGradient>
<linearGradient id="paint1_linear" x1="8.83438" y1="15.628" x2="8.83438" y2="4.84302" gradientUnits="userSpaceOnUse">
<stop offset="0.3033" stop-color="#473788"/>
<stop offset="0.872" stop-color="#2C2255"/>
</linearGradient>
<linearGradient id="paint2_linear" x1="8.8343" y1="15.6278" x2="8.8343" y2="4.84313" gradientUnits="userSpaceOnUse">
<stop offset="0.3033" stop-color="#473788"/>
<stop offset="0.8631" stop-color="#2C2255"/>
</linearGradient>
</defs>
</svg>
