<svg width="60" height="60" viewBox="0 0 60 60" fill="none" xmlns="http://www.w3.org/2000/svg">
<path d="M45 40C53.2843 40 60 35.5228 60 30C60 24.4772 53.2843 20 45 20C36.7157 20 30 24.4772 30 30C30 35.5228 36.7157 40 45 40Z" fill="#19BCFE"/>
<path fill-rule="evenodd" clip-rule="evenodd" d="M15 60C18.9782 60 22.7936 58.9464 25.6066 57.0711C28.4196 55.1957 30 52.6522 30 50V40H15C11.0218 40 7.20644 41.0536 4.3934 42.9289C1.58035 44.8043 0 47.3478 0 50C0 52.6522 1.58035 55.1957 4.3934 57.0711C7.20644 58.9464 11.0218 60 15 60Z" fill="#09CF83"/>
<path fill-rule="evenodd" clip-rule="evenodd" d="M15 40H30V20H15C11.0218 20 7.20644 21.0536 4.3934 22.9289C1.58035 24.8043 0 27.3478 0 30C0 32.6522 1.58035 35.1957 4.3934 37.0711C7.20644 38.9464 11.0218 40 15 40Z" fill="#A259FF"/>
<path fill-rule="evenodd" clip-rule="evenodd" d="M15 20H30V0H15C11.0218 0 7.20644 1.05357 4.3934 2.92893C1.58035 4.8043 0 7.34784 0 10C0 12.6522 1.58035 15.1957 4.3934 17.0711C7.20644 18.9464 11.0218 20 15 20Z" fill="#F24E1E"/>
<path fill-rule="evenodd" clip-rule="evenodd" d="M45 20H30V0H45C48.9782 0 52.7936 1.05357 55.6066 2.92893C58.4196 4.8043 60 7.34784 60 10C60 12.6522 58.4196 15.1957 55.6066 17.0711C52.7936 18.9464 48.9782 20 45 20Z" fill="#FF7262"/>
</svg>
