<svg width="60" height="60" viewBox="0 0 60 60" fill="none" xmlns="http://www.w3.org/2000/svg">
<path d="M48.4688 5.56981C46.9688 7.26792 46.2656 11.0717 47.7891 14.9434C49.3125 18.8151 51.6563 17.9774 53.1094 21.917C55.0312 27.1245 54.1406 34.1207 54.1406 34.1207C54.1406 34.1207 56.4609 40.5962 58.0781 33.7132C61.6641 20.7849 48.4688 8.76226 48.4688 5.56981V5.56981Z" fill="url(#paint0_radial)"/>
<path d="M30.0937 59.2528C45.5391 59.2528 58.0312 47.117 58.0312 32.1283C58.0312 17.1396 45.5156 5.02642 30.0937 5.02642C14.6719 5.02642 2.17968 17.1623 2.17968 32.1283C2.15624 47.117 14.6719 59.2528 30.0937 59.2528Z" fill="url(#paint1_radial)"/>
<path d="M51.0234 48.8604C50.4141 49.2679 49.7813 49.6302 49.125 49.9698C49.9922 48.7245 50.8125 47.4566 51.5391 46.1434C52.125 45.5094 52.6875 44.8981 53.1328 44.2189C53.3438 43.8792 53.6016 43.4943 53.8594 43.0189C55.4297 40.2792 57.1641 35.8641 57.2109 31.3358V30.9962C57.2109 29.8641 57.0938 28.7094 56.8594 27.6C56.8828 27.6906 56.8828 27.7811 56.9063 27.8717C56.8828 27.8038 56.8828 27.7358 56.8594 27.6679C56.8828 27.7811 56.9063 27.917 56.9297 28.0302C57.2578 30.6566 57.0234 33.2151 55.875 35.117C55.8516 35.1396 55.8281 35.1623 55.8281 35.2075C56.4141 32.3321 56.625 29.1623 55.9688 25.9924C55.9688 25.9924 55.7109 24.4528 53.7422 19.766C52.6172 17.0717 50.6016 14.8528 48.8438 13.2453C47.2969 11.3887 45.8672 10.1434 45.0938 9.35094C43.4766 7.69811 42.7969 6.45283 42.5156 5.66037C42.2813 5.54716 39.1641 2.62641 38.9297 2.5132C37.5703 4.55094 33.3281 10.8906 35.3438 16.8C36.2578 19.4943 38.5781 22.2792 41.0156 23.8415C41.1328 23.9547 42.4688 25.3585 43.1016 28.5283C43.7578 31.8113 43.4063 34.3472 42.0703 38.1283C40.4766 41.434 36.3984 44.717 32.5781 45.0566C24.4219 45.7811 21.4219 41.0943 21.4219 41.0943C24.3281 42.2264 27.5625 41.9774 29.5313 40.8226C31.5 39.6453 32.6953 38.7623 33.6797 39.1019C34.6406 39.4415 35.3906 38.4453 34.7109 37.4038C33.6328 35.7962 31.6641 34.9811 29.7188 35.2981C27.75 35.6151 25.9219 37.1321 23.3438 35.6604C23.1797 35.5698 23.0156 35.4566 22.8516 35.3434C22.6875 35.2302 23.4141 35.5019 23.2266 35.3887C22.7344 35.117 21.8203 34.5509 21.6094 34.3472C21.5625 34.3019 22.0078 34.483 21.9609 34.4377C19.5469 32.5132 19.8516 31.2 19.9219 30.3849C19.9922 29.7283 20.4141 28.8906 21.1641 28.5509C21.5156 28.7321 21.75 28.8906 21.75 28.8906C21.75 28.8906 21.5859 28.5962 21.5156 28.4377C21.5391 28.4151 21.5625 28.4377 21.6094 28.4151C21.9141 28.5509 22.5469 28.9132 22.8984 29.117C23.3438 29.4113 23.4844 29.683 23.4844 29.683C23.4844 29.683 23.6016 29.6151 23.5078 29.366C23.4844 29.2528 23.3438 28.9132 22.8984 28.5736H22.9219C23.1797 28.7094 23.4375 28.8906 23.6719 29.0717C23.7891 28.6415 24.0234 28.1887 23.9766 27.3736C23.9531 26.8075 23.9531 26.6491 23.8594 26.4226C23.7656 26.2415 23.9063 26.1509 24.0703 26.3547C24.0469 26.1962 24 26.0377 23.9297 25.9019V25.8792C24.1406 25.2 28.2188 23.4113 28.5234 23.2075C29.0156 22.8679 29.4141 22.4377 29.7188 21.9396C29.9531 21.6 30.1172 21.1019 30.1641 20.3547C30.1875 19.8113 29.9297 19.4491 25.7813 19.0415C24.6563 18.9283 23.9766 18.1358 23.6016 17.4113C23.5313 17.2528 23.4609 17.117 23.3906 16.9585C23.3203 16.8 23.2734 16.6189 23.2266 16.4377C23.9063 14.5585 25.0313 12.9736 26.7188 11.7736C26.8125 11.683 26.3438 11.7962 26.4375 11.7057C26.5547 11.6151 27.2344 11.3434 27.375 11.2755C27.5391 11.2075 26.6953 10.8453 25.9453 10.9358C25.1953 11.0264 25.0313 11.117 24.6094 11.2755C24.7734 11.117 25.3125 10.8906 25.1953 10.9132C24.375 11.0264 23.3672 11.5019 22.5 12.0226C22.5 11.9321 22.5234 11.8415 22.5469 11.7509C22.1484 11.9094 21.1406 12.5887 20.8594 13.1547C20.8828 13.0415 20.8828 12.9283 20.8828 12.8151C20.5781 13.0641 20.2969 13.3358 20.0625 13.6528L19.9219 13.6981C17.5781 12.7924 15.4922 12.7245 13.7578 13.1321C13.3828 12.7698 13.1953 13.0415 12.3047 11.1849C12.2344 11.0717 12.3516 11.2981 12.3047 11.1849C12.1641 10.8226 12.3984 11.6604 12.3047 11.1849C10.8516 12.317 8.92969 13.5849 7.99219 14.4679C7.99219 14.5132 9.07032 14.1736 7.99219 14.4679C7.61719 14.5811 7.64063 14.7849 7.59376 16.7547C7.57032 16.9132 7.59376 17.0717 7.57032 17.2075C6.82032 18.1132 6.32813 18.883 6.14063 19.2906C5.1797 20.8755 4.12501 23.366 3.1172 27.283C3.56251 26.2189 4.10157 25.2 4.73438 24.2264C3.89063 26.3094 3.07032 29.5924 2.90626 34.6189C3.1172 33.5774 3.37501 32.5585 3.70313 31.5396C3.4922 35.7283 4.2422 39.8943 5.88282 43.766C6.46876 45.1472 7.4297 47.2528 9.09376 49.5623C14.2969 54.8377 21.6094 58.1208 29.7188 58.1208C38.1797 58.1208 45.7969 54.5434 51.0234 48.8604V48.8604Z" fill="url(#paint2_linear)"/>
<path d="M44.7422 52.6868C54.9844 51.5321 59.5313 41.3434 53.6953 41.1396C48.4453 40.9811 39.8906 53.2302 44.7422 52.6868V52.6868Z" fill="url(#paint3_radial)"/>
<path d="M54.4453 39.0566C61.5 35.0943 59.6484 26.5358 59.6484 26.5358C59.6484 26.5358 56.9297 29.5925 55.0781 34.4604C53.2734 39.283 50.2031 41.4566 54.4453 39.0566Z" fill="url(#paint4_radial)"/>
<path d="M32.0625 57.7585C41.9063 60.7925 50.3438 53.2981 45.1406 50.8075C40.4063 48.566 27.3984 56.3321 32.0625 57.7585Z" fill="url(#paint5_radial)"/>
<path d="M55.1953 42.7019C55.4297 42.3849 55.7578 41.3434 56.0391 40.8679C57.7734 38.151 57.7969 36 57.7969 35.9547C58.8516 30.9057 58.7578 28.8226 58.1015 25.0189C57.5859 21.9396 55.3125 17.5245 53.3437 15.4189C51.3281 13.2226 52.7344 13.9472 50.789 12.3396C49.0781 10.5057 47.3906 8.6717 46.5 7.94718C39.9375 2.64906 40.0781 1.51699 40.2187 1.33585L40.125 1.42642C40.0547 1.13208 39.9844 0.883024 39.9844 0.883024C39.9844 0.883024 36.375 4.32453 35.625 10.0981C35.1328 13.8566 36.5859 17.7962 38.7187 20.3094C39.8203 21.6226 41.0625 22.8 42.4219 23.8415C44.0156 26.0604 44.9062 28.8 44.9062 31.7434C44.9062 39.1245 38.7187 45.0793 31.0781 45.0793C30.0469 45.0793 28.9922 44.966 27.9844 44.7396C24.375 44.083 22.3125 42.317 21.2578 41.117C20.6719 40.4377 20.4141 39.9396 20.4141 39.9396C23.6484 41.0491 27.2109 40.8227 29.3906 39.6679C31.5703 38.4906 32.9062 37.6302 33.9844 37.9698C35.0391 38.3094 35.8828 37.3132 35.1328 36.2943C34.3828 35.2755 32.4609 33.8038 29.6016 34.2113C27.4219 34.5283 25.4062 36.0227 22.5469 34.5736C22.3594 34.483 22.1719 34.3698 22.0078 34.2793C21.8203 34.166 22.6172 34.4377 22.4297 34.3245C21.8672 34.0528 20.8828 33.4868 20.625 33.283C20.5781 33.2377 21.0469 33.4189 21.0234 33.3736C18.3516 31.4717 18.6797 30.1811 18.75 29.366C18.8203 28.7094 19.3125 27.8943 20.1328 27.5547C20.5312 27.7359 20.7656 27.8943 20.7656 27.8943C20.7656 27.8943 20.6016 27.6 20.5078 27.4415C20.5312 27.4189 20.5781 27.4415 20.6016 27.4189C20.9297 27.5547 21.6562 27.8943 22.0312 28.1208C22.5234 28.4151 22.6875 28.6868 22.6875 28.6868C22.6875 28.6868 22.8281 28.6189 22.7109 28.3698C22.6641 28.2566 22.5234 27.917 22.0312 27.5774H22.0547C22.3359 27.7132 22.6172 27.8943 22.875 28.0755C23.0156 27.6453 23.25 27.1925 23.2031 26.3774C23.1797 25.8113 23.1797 25.6528 23.0625 25.4491C22.9687 25.2679 23.1094 25.1774 23.2969 25.3811C23.2734 25.2226 23.2031 25.0868 23.1328 24.9283V24.9057C23.3672 24.2264 27.8906 22.4604 28.2187 22.2566C28.7578 21.9396 29.2031 21.5094 29.5547 21.0113C29.8125 20.6717 30 20.1736 30.0469 19.4264C30.0703 19.0868 29.9531 18.8377 28.7578 18.566C28.0312 18.4076 26.9297 18.2717 25.1953 18.1132C23.9531 18 23.2031 17.2302 22.7812 16.5057C22.7109 16.3472 22.6172 16.2113 22.5469 16.0755C22.4766 15.917 22.4062 15.7359 22.3594 15.5774C23.1094 13.6755 24.4687 12.0679 26.2266 10.9585C26.3203 10.8679 25.8281 10.9811 25.9219 10.8906C26.0391 10.8 26.8125 10.5283 26.9531 10.4604C27.1406 10.3925 26.2031 10.0528 25.3594 10.1208C24.5156 10.2113 24.3516 10.2793 23.8828 10.4604C24.0703 10.3019 24.6562 10.0981 24.5156 10.0981C23.6719 10.1887 22.5469 10.6415 21.5859 11.1623C21.5859 11.0717 21.6094 10.9811 21.6328 10.8906C21.1875 11.0491 20.0859 11.7283 19.7578 12.2943C19.7812 12.1811 19.7812 12.0679 19.7812 11.9774C19.4531 12.2264 19.125 12.4981 18.8672 12.8151L18.8437 12.8377C16.2422 11.9321 13.9453 11.8642 12.0234 12.2717C11.6016 11.9094 10.9219 11.3434 9.96093 9.50944C9.89062 9.39623 9.86718 9.73585 9.8203 9.62265C9.4453 8.78491 9.21093 7.40378 9.2578 6.45284C9.2578 6.45284 8.48437 6.79246 7.85155 8.21887C7.73437 8.46793 7.66405 8.62642 7.5703 8.76227C7.52343 8.80755 7.64062 8.2868 7.64062 8.33208C7.52343 8.51321 7.24218 8.76227 7.12499 9.10189C7.03124 9.35095 6.91405 9.4868 6.84374 9.78114L6.8203 9.80378C6.8203 9.71321 6.84374 9.44152 6.8203 9.4868C6.51562 10.0755 6.2578 10.6868 6.04687 11.2981C5.6953 12.3849 5.29687 13.8793 5.22655 15.8264C5.20312 15.9623 5.22655 16.1434 5.20312 16.2793C4.3828 17.1849 3.8203 17.9547 3.60937 18.3396C2.55468 19.9245 1.3828 22.3698 0.257805 26.2642C0.749992 25.2 1.35937 24.1811 2.06249 23.2302C1.12499 25.2906 0.21093 28.551 0.0234299 33.5321C0.257805 32.4906 0.539055 31.4717 0.890617 30.4755C0.726555 33.8038 1.12499 37.9472 3.30468 42.6113C4.59374 45.351 7.57031 50.9208 14.8594 55.2679C14.8594 55.2679 17.3437 57.0566 21.5859 58.3925C21.8906 58.5057 22.2187 58.6189 22.5469 58.7094C22.4531 58.6642 22.3359 58.6189 22.2422 58.5962C25.0781 59.4113 28.0078 59.8415 30.9844 59.8415C42 59.8415 45.2578 55.5623 45.2578 55.5623L45.2344 55.5849C45.3984 55.4491 45.539 55.2906 45.6797 55.1547C43.9453 56.7396 39.9609 56.8528 38.4844 56.7396C41.0156 56.0151 42.6797 55.4038 45.914 54.2264C46.289 54.0906 46.6875 53.9321 47.0859 53.751L47.2031 53.683C47.2734 53.6377 47.3672 53.6151 47.4375 53.5698C49.0078 52.8453 50.5078 51.9623 51.8672 50.8981C55.125 48.3849 55.8281 45.9396 56.2031 44.3321C56.1562 44.4906 55.9922 44.8528 55.875 45.0793C55.0312 46.8 53.1797 47.8868 51.1641 48.7925C52.125 47.5698 53.0156 46.3019 53.8359 44.9887C54.4922 44.3547 54.6797 43.3585 55.1953 42.7019V42.7019Z" fill="url(#paint6_radial)"/>
<path d="M51.2344 48.7019C52.5703 47.2981 53.7422 45.6679 54.6562 43.834C56.9766 39.1245 60.5625 31.2679 57.75 23.0943C55.5234 16.6189 52.4531 13.0868 48.5625 9.62264C42.2344 4.00755 40.4766 1.49434 40.4766 0C40.4766 0 33.1641 7.8566 36.3281 16.0755C39.4922 24.2943 45.9844 23.9774 50.2734 32.5358C55.3359 42.6113 46.1953 53.6151 38.625 56.6943C39.0938 56.6038 55.4297 53.0264 56.2969 43.9925C56.25 44.1509 55.875 46.6642 51.2344 48.7019V48.7019Z" fill="url(#paint7_radial)"/>
<path d="M30.0469 19.4264C30.0703 18.883 29.7891 18.5434 25.2187 18.1132C23.3437 17.9547 22.6172 16.2792 22.4062 15.5547C21.75 17.2302 21.4687 18.9962 21.6094 21.1245C21.7031 22.5283 22.6875 24.0226 23.1328 24.883C23.1328 24.883 23.2266 24.7472 23.2734 24.7019C24.1406 23.8189 27.7969 22.483 28.1484 22.3019C28.5469 22.0755 30 21.0566 30.0469 19.4264V19.4264Z" fill="url(#paint8_linear)"/>
<path d="M9.96093 9.50944C9.89062 9.39623 9.86718 9.73585 9.82031 9.62264C9.44531 8.78491 9.21093 7.42642 9.28125 6.45283C9.28125 6.45283 8.50781 6.79245 7.875 8.21887C7.75781 8.46793 7.6875 8.62642 7.59375 8.76227C7.54687 8.80755 7.66406 8.28679 7.66406 8.33208C7.54687 8.51321 7.26562 8.76226 7.14843 9.07925C7.05468 9.3283 6.9375 9.48679 6.86718 9.80377C6.84375 9.89434 6.89062 9.41887 6.86718 9.48679C5.36718 12.2717 5.08593 16.483 5.25 16.3019C8.4375 13.0189 12.0703 12.2491 12.0703 12.2491C11.625 11.9774 10.7812 11.1623 9.96093 9.50944Z" fill="url(#paint9_linear)"/>
<path d="M22.0078 43.7887C17.625 41.9774 12.6328 39.4189 12.8203 33.6226C13.0781 25.9925 20.2031 27.4868 20.2031 27.4868C19.9453 27.5547 19.2187 28.0528 18.9609 28.5736C18.7031 29.2302 18.2109 30.7245 19.6875 32.2868C22.0312 34.7321 14.8828 38.083 25.8984 44.4226C26.1797 44.5585 23.3203 44.3321 22.0078 43.7887V43.7887Z" fill="url(#paint10_linear)"/>
<path d="M20.4609 39.9849C23.5781 41.0264 27.1875 40.8453 29.3672 39.6906C30.8203 38.8981 32.6953 37.6528 33.8203 37.9698C32.8359 37.5849 32.0859 37.4038 31.1719 37.3811C31.0078 37.3811 30.8438 37.3811 30.6797 37.3585C30.3516 37.3585 30.0234 37.3811 29.6953 37.4038C29.1328 37.4491 28.5234 37.7887 27.9609 37.7434C27.9375 37.7434 28.5 37.517 28.4531 37.517C28.1484 37.5849 27.8203 37.5849 27.4922 37.6302C27.2813 37.6528 27.0938 37.6755 26.8594 37.6981C20.3672 38.2189 14.9063 34.3019 14.9063 34.3019C14.4375 35.7962 16.9922 38.8075 20.4609 39.9849Z" fill="url(#paint11_linear)"/>
<path d="M51.2109 48.7472C57.7734 42.5208 61.0781 34.9811 59.6719 26.4906C59.6719 26.4906 60.2344 30.8377 58.1016 35.2755C59.1328 30.9283 59.25 25.5396 56.5313 19.9472C52.9219 12.4981 46.9688 8.55849 44.6953 6.9283C41.25 4.43774 39.8203 1.92453 39.7969 1.40378C38.7656 3.44151 35.6484 10.4151 39.4688 16.4151C43.0313 22.0528 48.6563 23.7057 52.5703 28.8679C59.8359 38.4 51.2109 48.7472 51.2109 48.7472Z" fill="url(#paint12_linear)"/>
<path d="M50.2734 32.5585C47.9766 27.9849 45.1172 25.9925 42.4219 23.8415C42.7266 24.2717 42.8203 24.4075 42.9844 24.7019C45.375 27.1472 48.8672 33.1245 46.3359 40.6415C41.5312 54.7698 22.3594 48.1132 20.3438 46.2566C21.1641 54.4302 35.3203 58.3472 44.5547 53.0491C49.7813 48.2038 54.0234 40.0528 50.2734 32.5585V32.5585Z" fill="url(#paint13_linear)"/>
<defs>
<radialGradient id="paint0_radial" cx="0" cy="0" r="1" gradientUnits="userSpaceOnUse" gradientTransform="translate(58.8848 18.483) rotate(2.18361) scale(21.5823 30.7339)">
<stop offset="0.1" stop-color="#FFEA00"/>
<stop offset="0.17" stop-color="#FFDE00"/>
<stop offset="0.28" stop-color="#FFBF00"/>
<stop offset="0.43" stop-color="#FF8E00"/>
<stop offset="0.77" stop-color="#FF272D"/>
<stop offset="0.87" stop-color="#E0255A"/>
<stop offset="0.95" stop-color="#CC2477"/>
<stop offset="1" stop-color="#C42482"/>
</radialGradient>
<radialGradient id="paint1_radial" cx="0" cy="0" r="1" gradientUnits="userSpaceOnUse" gradientTransform="translate(39.2833 9.2549) scale(61.2512 59.1709)">
<stop stop-color="#00CCDA"/>
<stop offset="0.22" stop-color="#0083FF"/>
<stop offset="0.26" stop-color="#007AF9"/>
<stop offset="0.33" stop-color="#005FE7"/>
<stop offset="0.44" stop-color="#2639AD"/>
<stop offset="0.52" stop-color="#401E84"/>
<stop offset="0.57" stop-color="#4A1475"/>
</radialGradient>
<linearGradient id="paint2_linear" x1="34.0413" y1="44.3289" x2="22.733" y2="6.0371" gradientUnits="userSpaceOnUse">
<stop stop-color="#000F43" stop-opacity="0.4"/>
<stop offset="0.48" stop-color="#001962" stop-opacity="0.17"/>
<stop offset="1" stop-color="#002079" stop-opacity="0"/>
</linearGradient>
<radialGradient id="paint3_radial" cx="0" cy="0" r="1" gradientUnits="userSpaceOnUse" gradientTransform="translate(60.7748 39.8077) rotate(5.4278) scale(20.5839 19.8976)">
<stop stop-color="#FFEA00"/>
<stop offset="0.5" stop-color="#FF272D"/>
<stop offset="1" stop-color="#C42482"/>
</radialGradient>
<radialGradient id="paint4_radial" cx="0" cy="0" r="1" gradientUnits="userSpaceOnUse" gradientTransform="translate(60.8532 20.6502) rotate(5.4278) scale(34.3731 33.2269)">
<stop stop-color="#FFE900"/>
<stop offset="0.16" stop-color="#FFAF0E"/>
<stop offset="0.32" stop-color="#FF7A1B"/>
<stop offset="0.47" stop-color="#FF4E26"/>
<stop offset="0.62" stop-color="#FF2C2E"/>
<stop offset="0.76" stop-color="#FF1434"/>
<stop offset="0.89" stop-color="#FF0538"/>
<stop offset="1" stop-color="#FF0039"/>
</radialGradient>
<radialGradient id="paint5_radial" cx="0" cy="0" r="1" gradientUnits="userSpaceOnUse" gradientTransform="translate(62.5735 51.7533) rotate(5.4278) scale(31.541 30.4893)">
<stop stop-color="#FF272D"/>
<stop offset="0.5" stop-color="#C42482"/>
<stop offset="0.99" stop-color="#620700"/>
</radialGradient>
<radialGradient id="paint6_radial" cx="0" cy="0" r="1" gradientUnits="userSpaceOnUse" gradientTransform="translate(45.0111 23.9561) scale(49.2273 47.5554)">
<stop offset="0.16" stop-color="#FFEA00"/>
<stop offset="0.23" stop-color="#FFDE00"/>
<stop offset="0.37" stop-color="#FFBF00"/>
<stop offset="0.54" stop-color="#FF8E00"/>
<stop offset="0.76" stop-color="#FF272D"/>
<stop offset="0.8" stop-color="#F92433"/>
<stop offset="0.84" stop-color="#E91C45"/>
<stop offset="0.89" stop-color="#CF0E62"/>
<stop offset="0.94" stop-color="#B5007F"/>
</radialGradient>
<radialGradient id="paint7_radial" cx="0" cy="0" r="1" gradientUnits="userSpaceOnUse" gradientTransform="translate(42.1886 1.90141) scale(56.1043 54.1989)">
<stop offset="0.28" stop-color="#FFEA00"/>
<stop offset="0.4" stop-color="#FFDD00"/>
<stop offset="0.63" stop-color="#FFBA00"/>
<stop offset="0.86" stop-color="#FF9100"/>
<stop offset="0.93" stop-color="#FF6711"/>
<stop offset="0.99" stop-color="#FF4A1D"/>
</radialGradient>
<linearGradient id="paint8_linear" x1="9.35054" y1="22.1986" x2="33.4764" y2="18.3849" gradientUnits="userSpaceOnUse">
<stop stop-color="#C42482" stop-opacity="0.5"/>
<stop offset="0.47" stop-color="#FF272D" stop-opacity="0.5"/>
<stop offset="0.49" stop-color="#FF2C2C" stop-opacity="0.51"/>
<stop offset="0.68" stop-color="#FF7A1A" stop-opacity="0.72"/>
<stop offset="0.83" stop-color="#FFB20D" stop-opacity="0.87"/>
<stop offset="0.94" stop-color="#FFD605" stop-opacity="0.96"/>
<stop offset="1" stop-color="#FFE302"/>
</linearGradient>
<linearGradient id="paint9_linear" x1="9.16855" y1="16.0768" x2="6.80566" y2="7.28535" gradientUnits="userSpaceOnUse">
<stop stop-color="#891551" stop-opacity="0.6"/>
<stop offset="1" stop-color="#C42482" stop-opacity="0"/>
</linearGradient>
<linearGradient id="paint10_linear" x1="13.7686" y1="28.3715" x2="18.7249" y2="35.5389" gradientUnits="userSpaceOnUse">
<stop offset="0.01" stop-color="#891551" stop-opacity="0.5"/>
<stop offset="0.48" stop-color="#FF272D" stop-opacity="0.5"/>
<stop offset="1" stop-color="#FF272D" stop-opacity="0"/>
</linearGradient>
<linearGradient id="paint11_linear" x1="23.884" y1="40.5672" x2="24.3277" y2="36.0634" gradientUnits="userSpaceOnUse">
<stop stop-color="#C42482"/>
<stop offset="0.08" stop-color="#C42482" stop-opacity="0.81"/>
<stop offset="0.21" stop-color="#C42482" stop-opacity="0.57"/>
<stop offset="0.33" stop-color="#C42482" stop-opacity="0.36"/>
<stop offset="0.45" stop-color="#C42482" stop-opacity="0.2"/>
<stop offset="0.56" stop-color="#C42482" stop-opacity="0.09"/>
<stop offset="0.67" stop-color="#C42482" stop-opacity="0.02"/>
<stop offset="0.77" stop-color="#C42482" stop-opacity="0"/>
</linearGradient>
<linearGradient id="paint12_linear" x1="39.0448" y1="2.1994" x2="57.1989" y2="44.2214" gradientUnits="userSpaceOnUse">
<stop stop-color="#FFF14F"/>
<stop offset="0.27" stop-color="#FFEE4C"/>
<stop offset="0.45" stop-color="#FFE643"/>
<stop offset="0.61" stop-color="#FFD834"/>
<stop offset="0.76" stop-color="#FFC41E"/>
<stop offset="0.89" stop-color="#FFAB02"/>
<stop offset="0.9" stop-color="#FFA900"/>
<stop offset="0.95" stop-color="#FFA000"/>
<stop offset="1" stop-color="#FF9100"/>
</linearGradient>
<linearGradient id="paint13_linear" x1="42.8644" y1="26.0998" x2="34.2913" y2="49.9286" gradientUnits="userSpaceOnUse">
<stop stop-color="#FF8E00"/>
<stop offset="0.04" stop-color="#FF8E00" stop-opacity="0.86"/>
<stop offset="0.08" stop-color="#FF8E00" stop-opacity="0.73"/>
<stop offset="0.13" stop-color="#FF8E00" stop-opacity="0.63"/>
<stop offset="0.18" stop-color="#FF8E00" stop-opacity="0.56"/>
<stop offset="0.23" stop-color="#FF8E00" stop-opacity="0.51"/>
<stop offset="0.28" stop-color="#FF8E00" stop-opacity="0.5"/>
<stop offset="0.39" stop-color="#FF8E00" stop-opacity="0.48"/>
<stop offset="0.52" stop-color="#FF8E00" stop-opacity="0.42"/>
<stop offset="0.68" stop-color="#FF8E00" stop-opacity="0.31"/>
<stop offset="0.84" stop-color="#FF8E00" stop-opacity="0.17"/>
<stop offset="1" stop-color="#FF8E00" stop-opacity="0"/>
</linearGradient>
</defs>
</svg>
