<svg width="256" height="257" viewBox="0 0 256 257" fill="none" xmlns="http://www.w3.org/2000/svg">
<path d="M127.789 0.0350403C127.789 0.0350403 203.109 -3.34496 243.042 72.363H121.38C121.38 72.363 98.42 71.623 78.807 99.477C73.173 111.168 67.117 123.211 73.913 146.945C64.123 130.359 21.938 56.905 21.938 56.905C21.938 56.905 51.693 3.02804 127.788 0.0350403H127.789Z" fill="#EF3F36"/>
<path d="M239.133 192.229C239.133 192.229 204.377 259.169 118.88 255.859C129.444 237.583 179.728 150.501 179.728 150.501C179.728 150.501 191.877 130.993 177.545 100.076C170.255 89.336 162.825 78.103 138.881 72.116C158.143 71.941 242.831 72.116 242.831 72.116C242.831 72.116 274.557 124.831 239.133 192.229Z" fill="#FCD900"/>
<path d="M16.973 192.757C16.973 192.757 -23.628 129.197 22.008 56.799C32.537 75.0749 82.821 162.157 82.821 162.157C82.821 162.157 93.667 182.44 127.577 185.467C140.501 184.517 153.952 183.707 171.137 165.995C161.663 182.757 119.16 256 119.16 256C119.16 256 57.608 257.127 16.972 192.757H16.973Z" fill="#61BC5B"/>
<path d="M118.845 256.493L135.958 185.081C135.958 185.081 154.762 183.601 170.538 166.312C160.748 183.532 118.845 256.493 118.845 256.493Z" fill="#5AB055"/>
<path d="M80.004 129.056C80.004 102.858 101.238 81.589 127.472 81.589C153.67 81.589 174.939 102.823 174.939 129.056C174.939 155.255 153.706 176.524 127.472 176.524C101.273 176.524 80.004 155.255 80.004 129.056Z" fill="url(#paint0_linear)"/>
<path d="M242.795 72.152L172.333 92.822C172.333 92.822 161.699 77.222 138.846 72.152C158.671 72.046 242.795 72.152 242.795 72.152Z" fill="#EACA05"/>
<path d="M72.54 144.339C62.644 127.19 21.938 56.905 21.938 56.905L74.124 108.527C74.124 108.527 68.771 119.549 70.779 135.324L72.539 144.339H72.54Z" fill="#DF3A32"/>
<defs>
<linearGradient id="paint0_linear" x1="127.47" y1="82.2592" x2="127.47" y2="173.666" gradientUnits="userSpaceOnUse">
<stop stop-color="#86BBE5"/>
<stop offset="1" stop-color="#1072BA"/>
</linearGradient>
</defs>
</svg>
