<svg width="16" height="16" viewBox="0 0 16 16" fill="none" xmlns="http://www.w3.org/2000/svg">
<g clip-path="url(#clip0)">
<path d="M14.4375 11.9062C14.225 12.0187 14.0062 12.1187 13.7812 12.2C13.0625 12.4687 12.3062 12.6062 11.5375 12.6062C8.5812 12.6062 6.0062 10.575 6.0062 7.96248C6.01245 7.24998 6.4062 6.59373 7.0312 6.25623C4.3562 6.36873 3.6687 9.15623 3.6687 10.7875C3.6687 15.4062 7.92495 15.875 8.8437 15.875C9.33745 15.875 10.0812 15.7312 10.5312 15.5875L10.6125 15.5625C12.3375 14.9687 13.8 13.8062 14.775 12.2625C14.85 12.1437 14.8125 11.9937 14.7 11.9187C14.6187 11.8687 14.5187 11.8625 14.4375 11.9062V11.9062Z" fill="url(#paint0_linear)"/>
<path opacity="0.35" d="M14.4375 11.9062C14.225 12.0187 14.0062 12.1187 13.7812 12.2C13.0625 12.4687 12.3062 12.6062 11.5375 12.6062C8.5812 12.6062 6.0062 10.575 6.0062 7.96248C6.01245 7.24998 6.4062 6.59373 7.0312 6.25623C4.3562 6.36873 3.6687 9.15623 3.6687 10.7875C3.6687 15.4062 7.92495 15.875 8.8437 15.875C9.33745 15.875 10.0812 15.7312 10.5312 15.5875L10.6125 15.5625C12.3375 14.9687 13.8 13.8062 14.775 12.2625C14.85 12.1437 14.8125 11.9937 14.7 11.9187C14.6187 11.8687 14.5187 11.8625 14.4375 11.9062V11.9062Z" fill="url(#paint1_radial)"/>
<path d="M6.60629 15.0875C6.05004 14.7438 5.56879 14.2875 5.18754 13.7563C3.54379 11.5063 4.03754 8.35001 6.28754 6.70626C6.52504 6.53751 6.76879 6.38126 7.03129 6.25626C7.22504 6.16251 7.55629 6.00001 8.00004 6.00626C8.63129 6.01251 9.22504 6.31251 9.60629 6.81876C9.85629 7.15626 10 7.56251 10.0063 7.98751C10.0063 7.97501 11.5375 3.01251 5.00629 3.01251C2.26254 3.01251 0.00628588 5.61876 0.00628588 7.90001C-0.00621412 9.10626 0.256286 10.3063 0.762536 11.4C2.48754 15.075 6.68754 16.875 10.5375 15.5938C9.21879 16.0063 7.78129 15.825 6.60629 15.0875V15.0875Z" fill="url(#paint2_linear)"/>
<path opacity="0.41" d="M6.60629 15.0875C6.05004 14.7438 5.56879 14.2875 5.18754 13.7563C3.54379 11.5063 4.03754 8.35001 6.28754 6.70626C6.52504 6.53751 6.76879 6.38126 7.03129 6.25626C7.22504 6.16251 7.55629 6.00001 8.00004 6.00626C8.63129 6.01251 9.22504 6.31251 9.60629 6.81876C9.85629 7.15626 10 7.56251 10.0063 7.98751C10.0063 7.97501 11.5375 3.01251 5.00629 3.01251C2.26254 3.01251 0.00628588 5.61876 0.00628588 7.90001C-0.00621412 9.10626 0.256286 10.3063 0.762536 11.4C2.48754 15.075 6.68754 16.875 10.5375 15.5938C9.21879 16.0063 7.78129 15.825 6.60629 15.0875V15.0875Z" fill="url(#paint3_radial)"/>
<path d="M9.51875 9.30625C9.46875 9.36875 9.3125 9.4625 9.3125 9.6625C9.3125 9.825 9.41875 9.98125 9.60625 10.1125C10.5062 10.7375 12.2 10.6562 12.2063 10.6562C12.875 10.6562 13.525 10.475 14.1 10.1375C15.275 9.45 16 8.19375 16 6.83125C16.0188 5.43125 15.5 4.5 15.2937 4.0875C13.9687 1.49375 11.1063 0 8 0C3.625 0 0.0625 3.5125 0 7.8875C0.03125 5.60625 2.3 3.7625 5 3.7625C5.21875 3.7625 6.46875 3.78125 7.625 4.39375C8.64375 4.93125 9.18125 5.575 9.55 6.21875C9.9375 6.8875 10.0063 7.725 10.0063 8.0625C10.0063 8.39375 9.8375 8.89375 9.51875 9.30625Z" fill="url(#paint4_radial)"/>
<path d="M9.51875 9.30625C9.46875 9.36875 9.3125 9.4625 9.3125 9.6625C9.3125 9.825 9.41875 9.98125 9.60625 10.1125C10.5062 10.7375 12.2 10.6562 12.2063 10.6562C12.875 10.6562 13.525 10.475 14.1 10.1375C15.275 9.45 16 8.19375 16 6.83125C16.0188 5.43125 15.5 4.5 15.2937 4.0875C13.9687 1.49375 11.1063 0 8 0C3.625 0 0.0625 3.5125 0 7.8875C0.03125 5.60625 2.3 3.7625 5 3.7625C5.21875 3.7625 6.46875 3.78125 7.625 4.39375C8.64375 4.93125 9.18125 5.575 9.55 6.21875C9.9375 6.8875 10.0063 7.725 10.0063 8.0625C10.0063 8.39375 9.8375 8.89375 9.51875 9.30625Z" fill="url(#paint5_radial)"/>
</g>
<defs>
<linearGradient id="paint0_linear" x1="3.66895" y1="11.0637" x2="14.8116" y2="11.0637" gradientUnits="userSpaceOnUse">
<stop stop-color="#0C59A4"/>
<stop offset="1" stop-color="#114A8B"/>
</linearGradient>
<radialGradient id="paint1_radial" cx="0" cy="0" r="1" gradientUnits="userSpaceOnUse" gradientTransform="translate(9.82444 11.1522) scale(5.96065 5.662)">
<stop offset="0.72" stop-opacity="0"/>
<stop offset="0.95" stop-opacity="0.53"/>
<stop offset="1"/>
</radialGradient>
<linearGradient id="paint2_linear" x1="9.54822" y1="6.23414" x2="2.58741" y2="13.8161" gradientUnits="userSpaceOnUse">
<stop stop-color="#1B9DE2"/>
<stop offset="0.16" stop-color="#1595DF"/>
<stop offset="0.67" stop-color="#0680D7"/>
<stop offset="1" stop-color="#0078D4"/>
</linearGradient>
<radialGradient id="paint3_radial" cx="0" cy="0" r="1" gradientUnits="userSpaceOnUse" gradientTransform="translate(4.41307 12.4381) rotate(-81.3826) scale(8.96236 7.24212)">
<stop offset="0.76" stop-opacity="0"/>
<stop offset="0.95" stop-opacity="0.5"/>
<stop offset="1"/>
</radialGradient>
<radialGradient id="paint4_radial" cx="0" cy="0" r="1" gradientUnits="userSpaceOnUse" gradientTransform="translate(1.61573 2.96205) rotate(92.2911) scale(12.6595 26.9661)">
<stop stop-color="#35C1F1"/>
<stop offset="0.11" stop-color="#34C1ED"/>
<stop offset="0.23" stop-color="#2FC2DF"/>
<stop offset="0.31" stop-color="#2BC3D2"/>
<stop offset="0.67" stop-color="#36C752"/>
</radialGradient>
<radialGradient id="paint5_radial" cx="0" cy="0" r="1" gradientUnits="userSpaceOnUse" gradientTransform="translate(15.0038 4.83786) rotate(73.7366) scale(6.08258 4.94731)">
<stop stop-color="#66EB6E"/>
<stop offset="1" stop-color="#66EB6E" stop-opacity="0"/>
</radialGradient>
<clipPath id="clip0">
<rect width="16" height="16" fill="white"/>
</clipPath>
</defs>
</svg>
