<svg width="16" height="16" viewBox="0 0 16 16" fill="none" xmlns="http://www.w3.org/2000/svg">
<g clip-path="url(#clip0)">
<path d="M15.9346 9.01581C16.4945 4.63263 13.399 0.625312 9.02381 0.0654375C4.64862 -0.4945 0.625312 2.601 0.0654375 6.97619C-0.4945 11.3514 2.601 15.3667 6.97619 15.9346C11.3594 16.4945 15.3667 13.399 15.9346 9.01581Z" fill="#FF6C37"/>
<path d="M10.8876 5.13652L7.51212 8.51196L6.5603 7.56008C9.87968 4.24071 10.2077 4.52864 10.8876 5.13652Z" fill="white"/>
<path d="M7.51211 8.59191C7.48811 8.59191 7.47211 8.58391 7.45617 8.56791L6.4963 7.61609C6.48871 7.60887 6.48267 7.60018 6.47855 7.59056C6.47442 7.58093 6.47229 7.57057 6.47229 7.56009C6.47229 7.54962 6.47442 7.53925 6.47855 7.52963C6.48267 7.52 6.48871 7.51131 6.4963 7.50409C9.87174 4.12872 10.2237 4.44866 10.9355 5.08853C10.9515 5.10453 10.9595 5.12053 10.9595 5.14453C10.9595 5.16853 10.9515 5.18453 10.9355 5.20053L7.56011 8.56791C7.55211 8.58391 7.52811 8.59191 7.51211 8.59191ZM6.6723 7.56009L7.51211 8.39997L10.7675 5.14453C10.1757 4.61666 9.77567 4.45666 6.6723 7.56016V7.56009Z" fill="#FF6C37"/>
<path d="M8.47993 9.4797L7.56006 8.55982L10.9355 5.18445C11.8392 6.09632 10.4876 7.57601 8.47987 9.4797H8.47993Z" fill="white"/>
<path d="M8.47991 9.55972C8.45591 9.55972 8.43991 9.55172 8.42391 9.53572L7.50404 8.61584C7.48804 8.59984 7.48804 8.58384 7.48804 8.55984C7.48804 8.53584 7.49604 8.51984 7.51204 8.50391L10.8875 5.12847C10.8947 5.12089 10.9034 5.11486 10.913 5.11074C10.9226 5.10662 10.933 5.10449 10.9434 5.10449C10.9539 5.10449 10.9643 5.10662 10.9739 5.11074C10.9835 5.11486 10.9922 5.12089 10.9994 5.12847C11.1015 5.22297 11.1822 5.33827 11.236 5.46659C11.2898 5.5949 11.3155 5.73326 11.3113 5.87234C11.2953 6.76022 10.2876 7.88797 8.54385 9.53572C8.51991 9.55172 8.49591 9.55972 8.47991 9.55972ZM7.67204 8.55984C8.18391 9.07978 8.39991 9.28772 8.47991 9.36772C9.82366 8.08797 11.1274 6.77622 11.1354 5.87234C11.1434 5.66441 11.0634 5.45641 10.9275 5.29647L7.67204 8.55984Z" fill="#FF6C37"/>
<path d="M6.57624 7.58404L7.25611 8.26391C7.27211 8.27991 7.27211 8.29591 7.25611 8.31191C7.24811 8.31991 7.24811 8.31991 7.24011 8.31991L5.83236 8.62385C5.76036 8.63185 5.69643 8.58385 5.68043 8.51191C5.67243 8.47191 5.68843 8.43191 5.71243 8.40791L6.52824 7.59204C6.54424 7.57604 6.56824 7.56804 6.57624 7.58404Z" fill="white"/>
<path d="M5.8084 8.70392C5.6884 8.70392 5.60046 8.60793 5.60046 8.48799C5.60046 8.43199 5.62446 8.37599 5.66446 8.33599L6.48028 7.52011C6.52828 7.48011 6.59228 7.48011 6.64028 7.52011L7.32015 8.19999C7.36815 8.23999 7.36815 8.31199 7.32015 8.35999C7.30415 8.37599 7.28815 8.38399 7.26415 8.39199L5.8564 8.69592C5.8404 8.69592 5.8244 8.70392 5.8084 8.70392ZM6.55228 7.67205L5.7684 8.45599C5.7524 8.47199 5.74446 8.49599 5.7604 8.51999C5.7684 8.54392 5.7924 8.55192 5.8164 8.54392L7.13615 8.25599L6.55228 7.67211V7.67205Z" fill="#FF6C37"/>
<path d="M12.6712 3.26493C12.1593 2.76899 11.3354 2.78499 10.8395 3.30493C10.3436 3.8248 10.3596 4.64068 10.8795 5.13655C11.0847 5.33485 11.3498 5.45966 11.6334 5.4915C11.917 5.52333 12.2031 5.46041 12.4472 5.31255L11.5353 4.40068L12.6712 3.26493Z" fill="white"/>
<path d="M11.7753 5.57645C11.0154 5.57645 10.3995 4.96058 10.3995 4.2007C10.3995 3.44083 11.0154 2.82495 11.7753 2.82495C12.1272 2.82495 12.4712 2.96095 12.7272 3.20889C12.7431 3.22489 12.7511 3.24089 12.7511 3.26489C12.7511 3.28889 12.7431 3.30489 12.7271 3.32083L11.6473 4.40064L12.4952 5.24851C12.5272 5.28051 12.5272 5.32851 12.4952 5.36051L12.4792 5.37651C12.2712 5.50445 12.0232 5.57645 11.7753 5.57645ZM11.7753 2.99289C11.1034 2.99289 10.5595 3.53683 10.5675 4.2087C10.5675 4.88058 11.1114 5.42445 11.7833 5.41645C11.9673 5.41645 12.1512 5.37645 12.3192 5.28851L11.4793 4.45664C11.4633 4.44064 11.4553 4.42464 11.4553 4.40064C11.4553 4.37664 11.4633 4.36064 11.4793 4.3447L12.5512 3.27283C12.3352 3.08889 12.0632 2.99289 11.7753 2.99289Z" fill="#FF6C37"/>
<path d="M12.6952 3.28883L12.6792 3.27283L11.5354 4.40058L12.4392 5.30445C12.5272 5.24845 12.6152 5.18445 12.6872 5.11245C12.8083 4.99376 12.9047 4.85219 12.9708 4.69596C13.0369 4.53973 13.0713 4.37194 13.072 4.20231C13.0728 4.03268 13.0398 3.8646 12.9752 3.70779C12.9105 3.55099 12.8153 3.40858 12.6952 3.28883Z" fill="white"/>
<path d="M12.4471 5.39254C12.4231 5.39254 12.4071 5.38454 12.3911 5.36854L11.4793 4.45666C11.4633 4.44066 11.4553 4.42466 11.4553 4.40066C11.4553 4.37666 11.4633 4.36066 11.4793 4.34473L12.6151 3.20891C12.6224 3.20134 12.631 3.1953 12.6407 3.19118C12.6503 3.18706 12.6606 3.18494 12.6711 3.18494C12.6816 3.18494 12.6919 3.18706 12.7015 3.19118C12.7112 3.1953 12.7199 3.20134 12.7271 3.20891L12.7511 3.22491C13.287 3.76079 13.287 4.62466 12.7591 5.16854C12.6791 5.24854 12.5911 5.32054 12.4951 5.37654C12.4711 5.38454 12.4551 5.39254 12.4471 5.39254ZM11.6473 4.40066L12.4551 5.20854C12.5191 5.16854 12.5831 5.11254 12.6311 5.06454C13.087 4.60866 13.111 3.86479 12.6711 3.38485L11.6473 4.40066Z" fill="#FF6C37"/>
<path d="M11.0234 5.28056C10.9311 5.18837 10.806 5.1366 10.6755 5.1366C10.545 5.1366 10.4199 5.18837 10.3276 5.28056L7.31213 8.296L7.81607 8.79994L11.0074 6.00043C11.2154 5.82443 11.2314 5.5125 11.0554 5.30456C11.0394 5.29656 11.0314 5.28856 11.0234 5.28056Z" fill="white"/>
<path d="M7.80807 8.8798C7.78407 8.8798 7.76807 8.8718 7.75207 8.85586L7.24813 8.35192C7.24054 8.3447 7.2345 8.33602 7.23038 8.32639C7.22625 8.31676 7.22412 8.3064 7.22412 8.29592C7.22412 8.28545 7.22625 8.27509 7.23038 8.26546C7.2345 8.25583 7.24054 8.24715 7.24813 8.23992L10.2636 5.22449C10.3165 5.17125 10.3794 5.12901 10.4488 5.10018C10.5181 5.07136 10.5924 5.05652 10.6675 5.05652C10.7426 5.05652 10.8169 5.07136 10.8862 5.10018C10.9556 5.12901 11.0185 5.17125 11.0714 5.22449C11.1247 5.27743 11.1669 5.34037 11.1957 5.40969C11.2246 5.47901 11.2394 5.55335 11.2394 5.62842C11.2394 5.7035 11.2246 5.77784 11.1957 5.84716C11.1669 5.91648 11.1247 5.97942 11.0714 6.03236L11.0474 6.05636L7.85601 8.85586C7.84801 8.8718 7.83201 8.8798 7.80807 8.8798ZM7.42413 8.29592L7.81601 8.68786L10.9514 5.93636C11.1274 5.79236 11.1434 5.52842 10.9994 5.35249C10.8555 5.17649 10.5916 5.16049 10.4156 5.30449C10.4076 5.31249 10.3996 5.32049 10.3836 5.32849L7.42413 8.29599V8.29592Z" fill="#FF6C37"/>
<path d="M5.00058 11.7273C4.96858 11.7433 4.95258 11.7753 4.96058 11.8073L5.09652 12.3832C5.12852 12.4632 5.08052 12.5592 4.99258 12.5832C4.92858 12.6072 4.85658 12.5832 4.81658 12.5352L3.93677 11.6633L6.80821 8.79187L7.80008 8.80787L8.47195 9.47974C8.31195 9.61568 7.34414 10.5516 5.00058 11.7273Z" fill="white"/>
<path d="M4.93662 12.6632C4.87262 12.6632 4.80862 12.6392 4.76862 12.5912L3.89674 11.7194C3.8808 11.7034 3.8728 11.6874 3.8728 11.6634C3.8728 11.6394 3.8808 11.6234 3.8968 11.6074L6.7683 8.73591C6.7843 8.71991 6.8083 8.71191 6.82424 8.71191L7.81612 8.72791C7.84005 8.72791 7.85612 8.73591 7.87205 8.75191L8.54393 9.42379C8.55993 9.43979 8.56793 9.46379 8.56793 9.48779C8.56793 9.51179 8.55993 9.52779 8.53593 9.54379L8.47999 9.59173C7.63211 10.3356 6.4803 11.0795 5.04862 11.7914L5.18455 12.3592C5.20855 12.4632 5.16055 12.5752 5.06455 12.6312C5.01662 12.6552 4.97662 12.6632 4.93662 12.6632V12.6632ZM4.05674 11.6634L4.88061 12.4792C4.90462 12.5192 4.95262 12.5352 4.99261 12.5112C5.03261 12.4872 5.04862 12.4392 5.02462 12.3992L4.88862 11.8234C4.87262 11.7514 4.90462 11.6874 4.96862 11.6554C6.38437 10.9435 7.52811 10.2077 8.36799 9.47973L7.77612 8.88785L6.85624 8.87185L4.05674 11.6634Z" fill="#FF6C37"/>
<path d="M3.25688 12.3513L3.94476 11.6633L4.96851 12.6871L3.33682 12.5752C3.26488 12.5672 3.21682 12.5032 3.22488 12.4312C3.22488 12.3992 3.23288 12.3672 3.25688 12.3512V12.3513Z" fill="white"/>
<path d="M4.96859 12.7591L3.32884 12.6471C3.20884 12.6391 3.1289 12.5351 3.1369 12.4151C3.1449 12.3671 3.1609 12.3192 3.2009 12.2872L3.88878 11.5993C3.896 11.5917 3.90469 11.5857 3.91431 11.5816C3.92394 11.5774 3.9343 11.5753 3.94478 11.5753C3.95525 11.5753 3.96562 11.5774 3.97524 11.5816C3.98487 11.5857 3.99356 11.5917 4.00078 11.5993L5.02453 12.6231C5.04859 12.6471 5.05653 12.6791 5.04059 12.7111C5.02459 12.7431 5.00059 12.7591 4.96859 12.7591ZM3.94478 11.7753L3.3129 12.4072C3.2889 12.4231 3.2889 12.4631 3.3129 12.4791C3.32084 12.4871 3.32884 12.4951 3.34484 12.4951L4.76059 12.5911L3.94478 11.7753V11.7753Z" fill="#FF6C37"/>
<path d="M6.52824 9.15976C6.48024 9.15976 6.44824 9.11976 6.44824 9.07976C6.44824 9.05576 6.45624 9.03976 6.47224 9.02376L7.24812 8.24789C7.25534 8.2403 7.26403 8.23426 7.27365 8.23013C7.28328 8.226 7.29364 8.22388 7.30412 8.22388C7.31459 8.22388 7.32496 8.226 7.33458 8.23013C7.34421 8.23426 7.3529 8.2403 7.36012 8.24789L7.86399 8.75182C7.88799 8.77582 7.89599 8.79982 7.88799 8.83182C7.87999 8.85582 7.85599 8.87976 7.82405 8.88776L6.54424 9.15976H6.52824ZM7.30412 8.41589L6.77624 8.94376L7.64005 8.75982L7.30412 8.41589Z" fill="#FF6C37"/>
<path d="M7.79995 8.80783L6.92014 8.99976C6.85614 9.01576 6.79214 8.97577 6.7762 8.91177C6.7682 8.87177 6.7762 8.83177 6.80814 8.79983L7.29608 8.31189L7.80001 8.80783H7.79995Z" fill="white"/>
<path d="M6.90423 9.07976C6.8779 9.08003 6.85177 9.07504 6.82738 9.06508C6.803 9.05513 6.78084 9.0404 6.76222 9.02178C6.74359 9.00315 6.72887 8.981 6.71891 8.95661C6.70896 8.93223 6.70397 8.9061 6.70423 8.87976C6.70423 8.82382 6.7283 8.77582 6.7603 8.73582L7.24817 8.24789C7.25539 8.2403 7.26408 8.23426 7.27371 8.23013C7.28333 8.226 7.2937 8.22388 7.30417 8.22388C7.31465 8.22388 7.32501 8.226 7.33464 8.23013C7.34426 8.23426 7.35295 8.2403 7.36017 8.24789L7.86405 8.75182C7.88805 8.77582 7.89605 8.79982 7.88805 8.83182C7.88005 8.85582 7.85605 8.87976 7.82411 8.88776L6.94423 9.07976H6.90423ZM7.30417 8.41589L6.8723 8.84776C6.85623 8.86382 6.85623 8.87976 6.86423 8.89576C6.87223 8.91176 6.88823 8.91976 6.91223 8.91976L7.64811 8.75976L7.30417 8.41589Z" fill="#FF6C37"/>
<path d="M12.7031 4.05672C12.6871 4.00879 12.6312 3.98479 12.5831 4.00079C12.5352 4.01672 12.5112 4.07272 12.5272 4.12079C12.5272 4.12872 12.5352 4.13672 12.5352 4.14472C12.5832 4.24072 12.5672 4.36066 12.5032 4.44866C12.4712 4.48866 12.4792 4.54466 12.5112 4.57666C12.5512 4.60866 12.6072 4.60066 12.6392 4.56066C12.7592 4.40866 12.7831 4.21672 12.7031 4.05672Z" fill="#FF6C37"/>
</g>
<defs>
<clipPath id="clip0">
<rect width="16" height="16" fill="white"/>
</clipPath>
</defs>
</svg>
