<svg width="60" height="60" viewBox="0 0 60 60" fill="none" xmlns="http://www.w3.org/2000/svg">
<path d="M57.8763 34.9242C57.8573 35.0297 57.844 35.1363 57.8241 35.2418L57.7214 34.6373C57.7777 34.7316 57.8241 34.8295 57.8763 34.9245C58.1888 33.2303 58.3469 31.5113 58.3486 29.7886C58.3486 25.9641 57.5998 22.2534 56.1204 18.7605C54.693 15.3865 52.6512 12.3562 50.0477 9.75469C47.448 7.15312 44.4157 5.11102 41.0435 3.68391C37.5516 2.20641 33.8412 1.45758 30.0166 1.45758C28.2143 1.45758 26.4087 1.6268 24.6518 1.96406C24.648 1.965 24.6434 1.965 24.6384 1.96594C24.7373 2.0182 24.8372 2.06484 24.934 2.11898L24.3382 2.0257C24.438 2.00695 24.5388 1.98586 24.6384 1.96594C22.2281 0.684375 19.5169 0 16.7728 0C12.293 0 8.08055 1.74445 4.9125 4.91344C1.74539 8.08148 0 12.2937 0 16.7738C0.00152082 19.6196 0.727782 22.4182 2.11031 24.9056C2.12836 24.803 2.14078 24.6994 2.1607 24.5967L2.26336 25.1906C2.21016 25.0976 2.16352 25.0005 2.11031 24.9056C1.82833 26.518 1.68562 28.1517 1.68375 29.7886C1.68375 33.6141 2.43258 37.3237 3.91195 40.8176C5.33719 44.1926 7.38023 47.2207 9.98086 49.8223C12.5843 52.4241 15.6127 54.469 18.9886 55.8923C22.4808 57.3727 26.1921 58.1224 30.0166 58.1224C31.6814 58.1224 33.3499 57.9703 34.9784 57.6816C34.8834 57.6284 34.7866 57.5798 34.6896 57.5238L35.295 57.6302C35.1905 57.6502 35.085 57.6626 34.9786 57.6816C37.4954 59.106 40.338 59.855 43.23 59.8556C47.7091 59.8556 51.9195 58.1138 55.0875 54.9441C58.2562 51.7779 60 47.5648 60 43.0847C59.9985 40.2282 59.2675 37.4193 57.8763 34.9245V34.9242ZM30.1296 47.1401C20.0644 47.1401 15.5613 42.1915 15.5613 38.483C15.5613 36.5805 16.9657 35.2474 18.9012 35.2474C23.2085 35.2474 22.0929 41.4323 30.1296 41.4323C34.2441 41.4323 36.5159 39.1983 36.5159 36.9122C36.5159 35.5373 35.8376 34.013 33.1284 33.345L24.1758 31.1102C16.9657 29.302 15.6572 25.4044 15.6572 21.7404C15.6572 14.1333 22.8197 11.277 29.5463 11.277C35.7424 11.277 43.0467 14.7014 43.0467 19.2652C43.0467 21.2208 41.3534 22.358 39.4186 22.358C35.7424 22.358 36.4191 17.2697 29.0142 17.2697C25.3397 17.2697 23.3044 18.9338 23.3044 21.3148C23.3044 23.6913 26.2064 24.4505 28.7262 25.0242L35.3529 26.4952C42.6115 28.1123 44.452 32.3503 44.452 36.342C44.452 42.5241 39.7066 47.1401 30.1296 47.1401ZM34.6896 57.5238C34.7866 57.5801 34.8834 57.6284 34.9786 57.6816C35.085 57.6626 35.1905 57.6502 35.295 57.63L34.6896 57.5238ZM57.8241 35.2418C57.844 35.1363 57.8573 35.0299 57.8763 34.9245C57.8241 34.8293 57.7774 34.7316 57.7216 34.6373L57.8241 35.2418ZM2.1607 24.5967C2.14078 24.6994 2.12836 24.803 2.11031 24.9056C2.16352 25.0005 2.21016 25.0976 2.26336 25.1906L2.1607 24.5967ZM24.934 2.11898C24.8372 2.06484 24.7373 2.0182 24.6387 1.96594C24.5388 1.98586 24.438 2.00672 24.3382 2.0257L24.934 2.11898Z" fill="#00AFF0"/>
</svg>
