<svg width="60" height="60" viewBox="0 0 60 60" fill="none" xmlns="http://www.w3.org/2000/svg">
<mask id="mask0" mask-type="alpha" maskUnits="userSpaceOnUse" x="0" y="0" width="60" height="60">
<path d="M42.3817 59.6711C42.8572 59.858 43.3659 59.9443 43.8759 59.9245C44.386 59.9048 44.8866 59.7794 45.3465 59.5563L57.6514 53.5889C58.2852 53.2814 58.8199 52.7998 59.1941 52.1995C59.5683 51.5992 59.7667 50.9047 59.7667 50.1958V9.73218C59.7667 9.02331 59.5682 8.32882 59.194 7.72861C58.8199 7.12839 58.2851 6.64684 57.6514 6.33935L45.3467 0.371707C44.6514 0.0345032 43.8693 -0.0765237 43.1087 0.0539942C42.348 0.184512 41.6464 0.55012 41.101 1.10021L17.5447 22.7605L7.28377 14.9104C6.82092 14.5563 6.24968 14.3766 5.66916 14.4027C5.08864 14.4287 4.53548 14.6587 4.10564 15.0528L0.814781 18.0701C-0.270375 19.0648 -0.271547 20.7854 0.811968 21.7818L9.71048 29.964L0.811968 38.146C-0.271547 39.1426 -0.270375 40.863 0.814781 41.8579L4.10564 44.8749C4.53545 45.2691 5.0886 45.4992 5.66912 45.5252C6.24964 45.5513 6.82089 45.3717 7.28377 45.0176L17.5447 37.1673L41.101 58.8275C41.4652 59.1952 41.9013 59.4825 42.3817 59.6711ZM44.8342 16.2894L26.9602 29.964L44.8342 43.6383V16.2894Z" fill="white"/>
</mask>
<g mask="url(#mask0)">
<path d="M57.6879 6.34863L45.3734 0.372722C44.6779 0.0352455 43.8956 -0.0760178 43.1346 0.0543283C42.3736 0.184675 41.6717 0.550185 41.1258 1.10028L0.812408 38.146C-0.271811 39.1426 -0.270404 40.863 0.81522 41.858L4.10819 44.875C4.53838 45.2692 5.09188 45.4993 5.67273 45.5254C6.25359 45.5514 6.82518 45.3718 7.28842 45.0177L55.835 7.89894C57.4637 6.65382 59.8029 7.82453 59.8029 9.88485V9.74075C59.8029 9.03202 59.6044 8.33769 59.2303 7.73761C58.8561 7.13753 58.3215 6.65608 57.6879 6.34863Z" fill="#0065A9"/>
<path d="M57.6879 53.5786L45.3734 59.5545C44.6779 59.8919 43.8956 60.0031 43.1346 59.8728C42.3737 59.7424 41.6717 59.377 41.1258 58.8269L0.812408 21.7812C-0.271811 20.7848 -0.270404 19.0642 0.81522 18.0695L4.10819 15.0522C4.53841 14.658 5.09192 14.428 5.67277 14.402C6.25363 14.3759 6.82521 14.5556 7.28842 14.9098L55.835 52.0283C57.4637 53.2734 59.8029 52.1027 59.8029 50.0421V50.1865C59.8029 50.8952 59.6044 51.5895 59.2303 52.1896C58.8561 52.7897 58.3215 53.2711 57.6879 53.5786Z" fill="#007ACC"/>
<path d="M45.3347 59.5601C44.6391 59.8973 43.8566 60.0084 43.0956 59.8779C42.3346 59.7475 41.6326 59.3819 41.0867 58.8318C42.465 60.2208 44.8221 59.2369 44.8221 57.272V2.66376C44.8221 0.698882 42.465 -0.284976 41.0867 1.10424C41.6325 0.554097 42.3345 0.188494 43.0956 0.0579847C43.8566 -0.0725242 44.639 0.0385101 45.3347 0.375733L57.6471 6.34337C58.2811 6.65065 58.8161 7.13212 59.1905 7.73236C59.5649 8.3326 59.7636 9.0272 59.7635 9.73621V50.2001C59.7635 51.6469 58.9409 52.966 57.6471 53.5929L45.3347 59.5603V59.5601Z" fill="#1F9CF0"/>
<path d="M42.3817 59.6706C42.8572 59.8574 43.3659 59.9437 43.8759 59.9239C44.386 59.9042 44.8866 59.7789 45.3465 59.5558L57.6512 53.5881C58.285 53.2807 58.8197 52.7992 59.194 52.1989C59.5682 51.5987 59.7667 50.9042 59.7667 50.1953V9.73167C59.7667 9.0228 59.5682 8.32831 59.194 7.72809C58.8199 7.12788 58.2851 6.64633 57.6514 6.33883L45.3463 0.370959C44.651 0.0338092 43.869 -0.0771882 43.1083 0.0533285C42.3477 0.183845 41.6462 0.549422 41.1008 1.09946L17.5447 22.7599L7.28377 14.9099C6.82092 14.5557 6.24968 14.3761 5.66916 14.4021C5.08864 14.4282 4.53548 14.6582 4.10564 15.0523L0.814781 18.0695C-0.270375 19.0643 -0.271547 20.7849 0.811968 21.7813L9.71048 29.9635L0.811968 38.1454C-0.271547 39.1421 -0.270375 40.8625 0.814781 41.8574L4.10564 44.8744C4.53545 45.2686 5.0886 45.4986 5.66912 45.5247C6.24964 45.5508 6.82089 45.3712 7.28377 45.0171L17.5447 37.1668L41.1008 58.827C41.4651 59.1947 41.9013 59.482 42.3817 59.6706ZM44.8342 16.2887L26.9602 29.9635L44.8342 43.6378V16.2889V16.2887Z" fill="url(#paint0_linear)" fill-opacity="0.25"/>
</g>
<defs>
<linearGradient id="paint0_linear" x1="29.8834" y1="0.00012207" x2="29.8834" y2="59.9267" gradientUnits="userSpaceOnUse">
<stop stop-color="white"/>
<stop offset="1" stop-color="white" stop-opacity="0"/>
</linearGradient>
</defs>
</svg>
