<svg width="24" height="24" viewBox="0 0 24 24" fill="none" xmlns="http://www.w3.org/2000/svg">
<path d="M0 8C0 5.87827 0.842855 3.84344 2.34315 2.34315C3.84344 0.842855 5.87827 0 8 0L16 0C18.1217 0 20.1566 0.842855 21.6569 2.34315C23.1571 3.84344 24 5.87827 24 8V16C24 18.1217 23.1571 20.1566 21.6569 21.6569C20.1566 23.1571 18.1217 24 16 24H8C5.87827 24 3.84344 23.1571 2.34315 21.6569C0.842855 20.1566 0 18.1217 0 16V8Z" fill="#3984FD"/>
<path d="M5 9C5 8.73478 5.10536 8.48043 5.29289 8.29289C5.48043 8.10536 5.73478 8 6 8H12C12.7956 8 13.5587 8.31607 14.1213 8.87868C14.6839 9.44129 15 10.2044 15 11V15C15 15.2652 14.8946 15.5196 14.7071 15.7071C14.5196 15.8946 14.2652 16 14 16H8C7.20435 16 6.44129 15.6839 5.87868 15.1213C5.31607 14.5587 5 13.7956 5 13V9Z" fill="white"/>
<path d="M15.5 11.7519C15.4998 11.2671 15.6757 10.7988 15.995 10.4339L17.685 8.50195C18.142 7.98195 19 8.30395 19 8.99595V15.0039C19 15.6969 18.142 16.0189 17.686 15.4979L15.995 13.5659C15.6759 13.2014 15.5 12.7334 15.5 12.2489V11.7509V11.7519Z" fill="white"/>
</svg>
