<svg width="17" height="16" viewBox="0 0 17 16" fill="none" xmlns="http://www.w3.org/2000/svg">
<path d="M2.2251 15.5C2.2251 15.5 0.924561 15.5 0.924561 14.25C0.924561 13 2.2251 9.25 8.72781 9.25C15.2305 9.25 16.5311 13 16.5311 14.25C16.5311 15.5 15.2305 15.5 15.2305 15.5H2.2251ZM8.72781 8C9.76259 8 10.755 7.60491 11.4867 6.90165C12.2184 6.19839 12.6294 5.24456 12.6294 4.25C12.6294 3.25544 12.2184 2.30161 11.4867 1.59835C10.755 0.895088 9.76259 0.5 8.72781 0.5C7.69304 0.5 6.70064 0.895088 5.96895 1.59835C5.23725 2.30161 4.82619 3.25544 4.82619 4.25C4.82619 5.24456 5.23725 6.19839 5.96895 6.90165C6.70064 7.60491 7.69304 8 8.72781 8V8Z" fill="#2B2929"/>
</svg>
