<svg width="16" height="16" viewBox="0 0 16 16" fill="none" xmlns="http://www.w3.org/2000/svg">
<path fill-rule="evenodd" clip-rule="evenodd" d="M11.9999 7.9999C11.9999 8.13251 11.9472 8.25968 11.8535 8.35345C11.7597 8.44722 11.6325 8.4999 11.4999 8.4999H5.70692L7.85392 10.6459C7.90041 10.6924 7.93728 10.7476 7.96244 10.8083C7.9876 10.8691 8.00055 10.9342 8.00055 10.9999C8.00055 11.0656 7.9876 11.1307 7.96244 11.1915C7.93728 11.2522 7.90041 11.3074 7.85392 11.3539C7.80743 11.4004 7.75224 11.4373 7.6915 11.4624C7.63076 11.4876 7.56566 11.5005 7.49992 11.5005C7.43417 11.5005 7.36907 11.4876 7.30833 11.4624C7.24759 11.4373 7.19241 11.4004 7.14592 11.3539L4.14592 8.3539C4.09935 8.30745 4.06241 8.25228 4.0372 8.19153C4.012 8.13079 3.99902 8.06567 3.99902 7.9999C3.99902 7.93413 4.012 7.86901 4.0372 7.80827C4.06241 7.74752 4.09935 7.69234 4.14592 7.6459L7.14592 4.6459C7.2398 4.55201 7.36714 4.49927 7.49992 4.49927C7.63269 4.49927 7.76003 4.55201 7.85392 4.6459C7.9478 4.73979 8.00055 4.86712 8.00055 4.9999C8.00055 5.13268 7.9478 5.26001 7.85392 5.3539L5.70692 7.4999H11.4999C11.6325 7.4999 11.7597 7.55258 11.8535 7.64635C11.9472 7.74011 11.9999 7.86729 11.9999 7.9999Z" fill="#DC1F1F"/>
</svg>
