<svg width="8" height="8" viewBox="0 0 8 8" fill="none" xmlns="http://www.w3.org/2000/svg">
<path d="M7.63896 4.09315C7.71958 4.03346 7.77938 3.95019 7.80997 3.85501C7.84057 3.75984 7.84043 3.65753 7.80958 3.56244C7.77872 3.46735 7.7187 3.38424 7.63792 3.32477C7.55714 3.26529 7.45966 3.23243 7.35915 3.2308L5.40696 3.1575C5.39737 3.15685 5.38816 3.15344 5.38047 3.14771C5.37277 3.14197 5.36691 3.13414 5.36358 3.12517L4.68899 1.31425C4.6551 1.22212 4.59354 1.14256 4.51265 1.08635C4.43176 1.03014 4.33544 1 4.23674 1C4.13804 1 4.04172 1.03014 3.96083 1.08635C3.87994 1.14256 3.81838 1.22212 3.78448 1.31425L3.11206 3.13163C3.10874 3.14061 3.10288 3.14844 3.09518 3.15417C3.08748 3.15991 3.07828 3.16331 3.06868 3.16397L1.1165 3.23727C1.01598 3.2389 0.918502 3.27176 0.837724 3.33123C0.756946 3.39071 0.696921 3.47382 0.666066 3.56891C0.63521 3.664 0.635072 3.76631 0.66567 3.86148C0.696268 3.95665 0.756067 4.03992 0.836684 4.09961L2.36806 5.29611C2.37573 5.30211 2.38146 5.3102 2.38454 5.3194C2.38762 5.32859 2.38793 5.33849 2.38542 5.34785L1.85833 7.20404C1.83101 7.29857 1.83366 7.39916 1.86591 7.49213C1.89815 7.5851 1.95843 7.66595 2.03855 7.72366C2.11866 7.78138 2.21472 7.81317 2.31365 7.8147C2.41259 7.81623 2.5096 7.78744 2.59148 7.73223L4.20962 6.6543C4.2176 6.64883 4.22705 6.6459 4.23674 6.6459C4.24642 6.6459 4.25588 6.64883 4.26385 6.6543L5.88199 7.73223C5.96277 7.78932 6.05943 7.82 6.15855 7.82C6.25768 7.82 6.35434 7.78932 6.43511 7.73223C6.51525 7.67506 6.57559 7.59461 6.60783 7.50195C6.64007 7.40929 6.64262 7.30898 6.61515 7.21482L6.08372 5.35216C6.0809 5.34281 6.08106 5.33283 6.08417 5.32357C6.08727 5.31431 6.09318 5.30623 6.10107 5.30042L7.63896 4.09315Z" fill="#353535"/>
</svg>
