<svg width="23" height="23" viewBox="0 0 23 23" fill="none" xmlns="http://www.w3.org/2000/svg">
<path d="M2.15667 22.0088C1.9948 22.0085 1.83477 21.9745 1.68674 21.909C1.53871 21.8436 1.40593 21.748 1.29683 21.6284C1.18576 21.5099 1.10101 21.3692 1.04813 21.2156C0.995254 21.062 0.975443 20.8989 0.989999 20.7371L1.27583 17.5941L14.4802 4.39443L18.6067 8.51976L5.40583 21.7183L2.26283 22.0041C2.22754 22.0074 2.19211 22.0089 2.15667 22.0088ZM19.4303 7.69493L15.305 3.5696L17.7795 1.0951C17.8878 0.986625 18.0165 0.900573 18.1581 0.841861C18.2998 0.783149 18.4516 0.75293 18.6049 0.75293C18.7582 0.75293 18.91 0.783149 19.0517 0.841861C19.1933 0.900573 19.322 0.986625 19.4303 1.0951L21.9048 3.5696C22.0133 3.67795 22.0994 3.80662 22.1581 3.94825C22.2168 4.08988 22.247 4.2417 22.247 4.39501C22.247 4.54833 22.2168 4.70015 22.1581 4.84178C22.0994 4.98341 22.0133 5.11208 21.9048 5.22043L19.4315 7.69376L19.4303 7.69493Z" fill="#3F3D3D"/>
</svg>
