<svg width="26" height="22" viewBox="0 0 26 22" fill="none" xmlns="http://www.w3.org/2000/svg">
<path d="M24.8125 9.89625C25.0984 9.70528 25.3105 9.43886 25.419 9.13436C25.5275 8.82986 25.527 8.50255 25.4176 8.19831C25.3081 7.89407 25.0952 7.62817 24.8088 7.43789C24.5223 7.2476 24.1766 7.14248 23.8201 7.13726L16.8965 6.90275C16.8624 6.90064 16.8298 6.88975 16.8025 6.8714C16.7752 6.85304 16.7544 6.828 16.7426 6.79929L14.3501 1.00541C14.2299 0.710641 14.0116 0.456108 13.7247 0.276277C13.4378 0.0964449 13.0962 0 12.7462 0C12.3961 0 12.0545 0.0964449 11.7676 0.276277C11.4807 0.456108 11.2624 0.710641 11.1422 1.00541L8.75739 6.81998C8.7456 6.84869 8.72481 6.87373 8.69751 6.89209C8.67021 6.91045 8.63758 6.92133 8.60353 6.92344L1.67993 7.15796C1.32345 7.16318 0.977725 7.2683 0.691238 7.45858C0.40475 7.64886 0.191866 7.91476 0.0824348 8.219C-0.0269967 8.52324 -0.0274877 8.85056 0.0810306 9.15506C0.189549 9.45956 0.401635 9.72597 0.68755 9.91694L6.11873 13.745C6.14591 13.7642 6.16623 13.7901 6.17717 13.8195C6.1881 13.849 6.18918 13.8806 6.18027 13.9106L4.3109 19.8493C4.21403 20.1517 4.22342 20.4735 4.33778 20.771C4.45214 21.0685 4.66593 21.3271 4.95006 21.5118C5.2342 21.6964 5.57488 21.7981 5.92576 21.803C6.27664 21.8079 6.62069 21.7158 6.9111 21.5392L12.65 18.0904C12.6783 18.0729 12.7118 18.0636 12.7462 18.0636C12.7805 18.0636 12.814 18.0729 12.8423 18.0904L18.5812 21.5392C18.8677 21.7219 19.2105 21.82 19.5621 21.82C19.9136 21.82 20.2564 21.7219 20.5429 21.5392C20.8271 21.3563 21.0411 21.0989 21.1554 20.8024C21.2698 20.506 21.2789 20.185 21.1814 19.8838L19.2967 13.9244C19.2867 13.8945 19.2872 13.8625 19.2982 13.8329C19.3092 13.8033 19.3302 13.7774 19.3582 13.7588L24.8125 9.89625ZM17.8119 14.2624L19.6967 20.2218C19.712 20.2536 19.7147 20.2892 19.7044 20.3226C19.694 20.356 19.6712 20.3853 19.6397 20.4054C19.6082 20.4256 19.57 20.4355 19.5313 20.4334C19.4927 20.4314 19.456 20.4175 19.4274 20.3942L13.6885 16.9455C13.407 16.7745 13.0747 16.6832 12.7346 16.6834V1.38477C12.7708 1.38214 12.8069 1.39108 12.8365 1.41001C12.8661 1.42895 12.8872 1.45666 12.8962 1.48823L15.2887 7.28901C15.4045 7.5749 15.6128 7.82337 15.8868 8.00272C16.1608 8.18208 16.4882 8.28419 16.8272 8.29604L23.7508 8.53055C23.787 8.53003 23.8225 8.53993 23.8519 8.55879C23.8814 8.57766 23.9033 8.6045 23.9145 8.63537C23.9257 8.66625 23.9256 8.69952 23.9141 8.73031C23.9026 8.76111 23.8805 8.78779 23.8508 8.80645L18.4197 12.6345C18.1477 12.8198 17.9443 13.0741 17.8359 13.3645C17.7275 13.6548 17.7192 13.9677 17.8119 14.2624Z" fill="#DC1F1F"/>
</svg>
