<svg width="26" height="22" viewBox="0 0 26 22" fill="none" xmlns="http://www.w3.org/2000/svg">
<path d="M24.8102 9.89625C25.0961 9.70528 25.3082 9.43886 25.4167 9.13436C25.5252 8.82986 25.5247 8.50255 25.4153 8.19831C25.3059 7.89407 25.093 7.62817 24.8065 7.43789C24.5201 7.2476 24.1744 7.14248 23.8179 7.13726L16.895 6.90275C16.8609 6.90064 16.8283 6.88975 16.801 6.8714C16.7737 6.85304 16.7529 6.828 16.7411 6.79929L14.3488 1.00541C14.2286 0.710641 14.0103 0.456108 13.7235 0.276277C13.4366 0.0964449 13.095 0 12.745 0C12.395 0 12.0534 0.0964449 11.7666 0.276277C11.4797 0.456108 11.2614 0.710641 11.1412 1.00541L8.75661 6.81998C8.74482 6.84869 8.72402 6.87373 8.69673 6.89209C8.66943 6.91045 8.6368 6.92133 8.60276 6.92344L1.67978 7.15796C1.32333 7.16318 0.977637 7.2683 0.691176 7.45858C0.404714 7.64886 0.191849 7.91476 0.0824274 8.219C-0.0269943 8.52324 -0.0274852 8.85056 0.0810234 9.15506C0.189532 9.45956 0.401599 9.72597 0.687488 9.91694L6.11818 13.745C6.14536 13.7642 6.16567 13.7901 6.17661 13.8195C6.18755 13.849 6.18863 13.8806 6.17972 13.9106L4.31051 19.8493C4.21365 20.1517 4.22304 20.4735 4.33739 20.771C4.45174 21.0685 4.66551 21.3271 4.94962 21.5118C5.23373 21.6964 5.57438 21.7981 5.92523 21.803C6.27608 21.8079 6.62009 21.7158 6.91048 21.5392L12.6489 18.0904C12.6771 18.0729 12.7107 18.0636 12.745 18.0636C12.7794 18.0636 12.8129 18.0729 12.8412 18.0904L18.5795 21.5392C18.866 21.7219 19.2088 21.82 19.5603 21.82C19.9118 21.82 20.2546 21.7219 20.5411 21.5392C20.8252 21.3563 21.0392 21.0989 21.1535 20.8024C21.2679 20.506 21.2769 20.185 21.1795 19.8838L19.2949 13.9244C19.2849 13.8945 19.2855 13.8625 19.2965 13.8329C19.3075 13.8033 19.3285 13.7774 19.3565 13.7588L24.8102 9.89625Z" fill="#DC1F1F"/>
</svg>
