<svg width="24" height="21" viewBox="0 0 24 21" fill="none" xmlns="http://www.w3.org/2000/svg">
<path d="M22.5151 9.03186L22.515 9.0317L22.5039 9.0399L17.4961 12.7224C17.3917 12.7968 17.3081 12.9027 17.2623 13.0304C17.2157 13.1606 17.2127 13.3022 17.254 13.4343L18.9852 19.1182L18.9861 19.1212C19.0427 19.3028 19.0376 19.4955 18.9709 19.675C18.9042 19.8547 18.7769 20.0172 18.5998 20.1358C18.4206 20.2542 18.2024 20.32 17.9755 20.32C17.7482 20.32 17.5296 20.2539 17.3502 20.1351L17.3503 20.135L17.3389 20.1279L12.0672 16.8383C11.9596 16.7702 11.8361 16.7357 11.7124 16.7357C11.5887 16.7357 11.4651 16.7702 11.3575 16.8383L6.08588 20.1279L6.08359 20.1293C5.90059 20.2449 5.68009 20.3072 5.45241 20.3039C5.22473 20.3006 5.0068 20.2319 4.82829 20.1115C4.65015 19.9912 4.52208 19.827 4.45486 19.6455C4.38786 19.4645 4.38253 19.2702 4.43906 19.087L4.43977 19.0847L6.15753 13.4181L6.15758 13.4181L6.15971 13.4107C6.19678 13.2813 6.19214 13.144 6.14691 13.0177C6.10186 12.8918 6.02023 12.7867 5.91798 12.7118L5.91778 12.7116L0.927091 9.05898L0.927187 9.05884L0.916744 9.0516C0.737725 8.92744 0.611038 8.75865 0.547381 8.57317C0.483931 8.3883 0.484209 8.19074 0.548207 8.00599C0.612414 7.82063 0.739624 7.6521 0.919052 7.52836C1.09888 7.40433 1.31995 7.33337 1.55129 7.32985L1.55129 7.32995L1.56126 7.3296L7.92333 7.10583L7.93058 7.10558L7.93782 7.10511C8.05803 7.09739 8.17637 7.05739 8.27836 6.98618C8.38064 6.91476 8.46374 6.81359 8.51211 6.69127L8.51217 6.6911L10.7036 1.14301L10.7039 1.14211C10.7747 0.96188 10.9058 0.799947 11.086 0.682666C11.2665 0.565155 11.4853 0.5 11.7124 0.5C11.9395 0.5 12.1583 0.565155 12.3388 0.682666C12.519 0.799947 12.6501 0.96188 12.7209 1.14211L12.7217 1.14409L14.9197 6.67152C14.9198 6.67175 14.9199 6.67198 14.92 6.6722C14.9684 6.79422 15.0514 6.89515 15.1535 6.96643C15.2555 7.03765 15.3738 7.07764 15.494 7.08537L15.5013 7.08583L15.5085 7.08609L21.8706 7.30986L21.8706 7.30996L21.8806 7.31011C22.1119 7.31362 22.333 7.38459 22.5128 7.50861C22.6922 7.63236 22.8194 7.80088 22.8836 7.98624C22.9476 8.17099 22.9479 8.36855 22.8845 8.55343C22.8208 8.73891 22.6941 8.9077 22.5151 9.03186Z" fill="white" stroke="black"/>
</svg>
